<svg width="161" height="40" viewBox="0 0 161 40" fill="none" xmlns="http://www.w3.org/2000/svg">
<path d="M44.9848 32.0215C43.6358 32.3636 42.3344 32.6165 41.0727 32.785C39.8031 32.9485 38.4936 33.0328 37.1288 33.0328C34.9466 33.0328 33.0103 32.8297 31.3359 32.4282C29.6536 32.0263 28.2332 31.4315 27.0828 30.6333C25.9241 29.8399 25.0512 28.8535 24.4561 27.6783C23.8609 26.5034 23.5593 25.1349 23.5593 23.5731C23.5593 21.9767 23.8848 20.5537 24.5355 19.3093C25.1862 18.0648 26.1145 17.0138 27.3206 16.1561C28.5347 15.2983 30.0027 14.644 31.7249 14.1927C33.4545 13.7416 35.3987 13.5185 37.5494 13.5185C38.2477 13.5185 38.8984 13.5283 39.5094 13.5482C40.1283 13.568 40.7233 13.6027 41.3107 13.6573C41.9057 13.7119 42.501 13.7813 43.1041 13.8655C43.7072 13.9549 44.334 14.0687 44.9848 14.2027V17.7426C43.6673 17.3559 42.4137 17.0832 41.2232 16.9196C40.0332 16.756 38.9459 16.6718 37.97 16.6718C36.5336 16.6718 35.3036 16.8354 34.2801 17.1576C33.2564 17.4848 32.4153 17.9361 31.7565 18.5259C31.1058 19.111 30.6218 19.8052 30.3124 20.6182C30.0027 21.4265 29.8441 22.3139 29.8441 23.2807C29.8441 24.3069 30.0027 25.2242 30.3203 26.0372C30.6379 26.8453 31.1297 27.5295 31.7964 28.0898C32.4627 28.6549 33.3119 29.0815 34.3514 29.379C35.383 29.6714 36.621 29.8203 38.0414 29.8203C38.5492 29.8203 39.1046 29.7904 39.6998 29.726C40.2951 29.6616 40.898 29.5823 41.509 29.4782C42.128 29.379 42.7311 29.2549 43.3264 29.116C43.9214 28.9774 44.477 28.8335 44.9848 28.6897V32.0215ZM73.163 23.1864C73.163 24.9118 72.8378 26.3992 72.195 27.6485C71.5522 28.8929 70.6714 29.9192 69.5447 30.7275C68.4177 31.5307 67.1005 32.1256 65.5927 32.5124C64.0772 32.8991 62.4663 33.0923 60.7442 33.0923C56.7369 33.0923 53.7296 32.2644 51.714 30.6036C49.6983 28.9426 48.6906 26.5282 48.6906 23.3649C48.6906 21.6395 49.0158 20.1522 49.6586 18.9028C50.3014 17.6534 51.1822 16.6321 52.309 15.824C53.4359 15.0208 54.7531 14.4258 56.2607 14.0391C57.7765 13.6523 59.3954 13.459 61.1093 13.459C65.1167 13.459 68.1243 14.2869 70.1397 15.943C72.1553 17.5989 73.163 20.0133 73.163 23.1864ZM67.1164 23.3649C67.1164 21.114 66.6324 19.4332 65.6723 18.3276C64.7119 17.222 63.133 16.6718 60.9269 16.6718C59.8239 16.6718 58.8874 16.8155 58.1098 17.103C57.332 17.3858 56.6973 17.807 56.1893 18.3574C55.6896 18.9126 55.3165 19.5919 55.0865 20.4051C54.8563 21.2132 54.7373 22.1403 54.7373 23.1864C54.7373 25.4373 55.2212 27.1181 56.1893 28.2237C57.1575 29.3293 58.7366 29.8796 60.9269 29.8796C62.0298 29.8796 62.9741 29.7358 63.752 29.4483C64.5374 29.1657 65.1802 28.7443 65.6723 28.1941C66.1722 27.6387 66.5371 26.9594 66.7672 26.1464C66.9973 25.3381 67.1164 24.411 67.1164 23.3649ZM91.2396 32.7651L83.0743 21.4363L81.392 18.9971V26.8703V32.7651H76.2024V13.7862H83.2014L91.5414 25.1846L93.0094 27.4056V19.0267V13.7862H98.199V32.7651H91.2396ZM125.52 23.1864C125.52 24.9118 125.195 26.3992 124.552 27.6485C123.909 28.8929 123.029 29.9192 121.902 30.7275C120.775 31.5307 119.458 32.1256 117.95 32.5124C116.434 32.8991 114.824 33.0923 113.102 33.0923C109.094 33.0923 106.087 32.2644 104.071 30.6036C102.056 28.9426 101.048 26.5282 101.048 23.3649C101.048 21.6395 101.373 20.1522 102.016 18.9028C102.659 17.6534 103.54 16.6321 104.666 15.824C105.793 15.0208 107.11 14.4258 108.618 14.0391C110.134 13.6523 111.753 13.459 113.467 13.459C117.474 13.459 120.482 14.2869 122.497 15.943C124.513 17.5989 125.52 20.0133 125.52 23.1864ZM119.474 23.3649C119.474 21.114 118.99 19.4332 118.029 18.3276C117.069 17.222 115.49 16.6718 113.284 16.6718C112.181 16.6718 111.245 16.8155 110.467 17.103C109.689 17.3858 109.055 17.807 108.547 18.3574C108.047 18.9126 107.674 19.5919 107.444 20.4051C107.213 21.2132 107.095 22.1403 107.095 23.1864C107.095 25.4373 107.579 27.1181 108.547 28.2237C109.515 29.3293 111.094 29.8796 113.284 29.8796C114.387 29.8796 115.331 29.7358 116.109 29.4483C116.895 29.1657 117.537 28.7443 118.029 28.1941C118.529 27.6387 118.894 26.9594 119.125 26.1464C119.355 25.3381 119.474 24.411 119.474 23.3649ZM150.08 27.0238C150.08 28.0601 149.771 28.9574 149.16 29.7211C148.549 30.4895 147.692 31.1191 146.597 31.6198C145.494 32.1157 144.184 32.4874 142.669 32.7304C141.145 32.9735 139.494 33.0923 137.693 33.0923C136.098 33.0923 134.559 33.0328 133.067 32.9189C131.583 32.8048 130.115 32.6165 128.655 32.3486V28.8087C129.369 28.9674 130.107 29.1111 130.885 29.25C131.654 29.3839 132.432 29.5078 133.218 29.607C134.003 29.7111 134.781 29.7904 135.551 29.8499C136.328 29.9094 137.074 29.9392 137.804 29.9392C138.891 29.9392 139.812 29.8796 140.566 29.7657C141.328 29.6466 141.946 29.488 142.423 29.2799C142.907 29.0766 143.256 28.8335 143.47 28.5509C143.684 28.2683 143.796 27.9561 143.796 27.6188C143.796 27.1529 143.581 26.761 143.153 26.4489C142.732 26.1364 142.169 25.8538 141.47 25.6158C140.772 25.3729 139.979 25.1547 139.09 24.9613C138.193 24.768 137.288 24.5599 136.368 24.3366C135.448 24.1135 134.543 23.8608 133.646 23.5782C132.757 23.3005 131.964 22.9533 131.266 22.537C130.567 22.1205 130.004 21.6246 129.583 21.0447C129.155 20.4695 128.94 19.7753 128.94 18.9623C128.94 18.2186 129.155 17.5097 129.591 16.8403C130.028 16.1759 130.71 15.5909 131.639 15.095C132.567 14.5945 133.757 14.1978 135.217 13.9002C136.677 13.6076 138.431 13.459 140.494 13.459C141.097 13.459 141.732 13.4739 142.391 13.5085C143.049 13.5433 143.7 13.5878 144.343 13.6424C144.986 13.6919 145.605 13.7565 146.2 13.8307C146.803 13.9002 147.35 13.9745 147.842 14.0538V17.3263C147.35 17.2073 146.803 17.103 146.216 17.0038C145.628 16.9098 145.017 16.8204 144.391 16.7511C143.764 16.6767 143.129 16.6221 142.494 16.5824C141.859 16.5428 141.256 16.5229 140.685 16.5229C139.677 16.5229 138.828 16.5726 138.13 16.6767C137.431 16.7758 136.86 16.9196 136.408 17.0981C135.955 17.2766 135.63 17.4948 135.432 17.7575C135.233 18.0203 135.13 18.3078 135.13 18.6302C135.13 19.0267 135.344 19.3688 135.773 19.6514C136.193 19.9391 136.765 20.1967 137.463 20.4201C138.169 20.648 138.971 20.8613 139.86 21.0594C140.756 21.2578 141.669 21.471 142.605 21.6991C143.542 21.9272 144.454 22.1849 145.351 22.4775C146.239 22.7649 147.041 23.122 147.747 23.5385C148.446 23.9548 149.017 24.4458 149.437 25.011C149.866 25.5761 150.08 26.2454 150.08 27.0238Z" fill="#373435"/>
<path fill-rule="evenodd" clip-rule="evenodd" d="M7.12646 13.6699H13.2956H18.8554H19.3126V33.0915H13.2956V17.4018H7.12646V13.6699Z" fill="#373435"/>
<path fill-rule="evenodd" clip-rule="evenodd" d="M13.2942 6.45312H19.3123V11.5698H13.2942V6.45312Z" fill="#FFCC29"/>
<path d="M151.242 14.44V11.7988H151.996C152.29 11.7988 152.496 11.8122 152.611 11.8396C152.727 11.8667 152.827 11.9121 152.912 11.9754C153.007 12.0475 153.08 12.1399 153.131 12.2514C153.182 12.3634 153.207 12.4866 153.207 12.6214C153.207 12.8257 153.157 12.9921 153.057 13.1201C152.956 13.248 152.809 13.3331 152.616 13.3749L153.337 14.44H152.524L151.918 13.4056V14.44H151.242ZM151.918 13.0474H152.051C152.206 13.0474 152.32 13.0209 152.391 12.968C152.462 12.9151 152.498 12.832 152.498 12.7193C152.498 12.5869 152.465 12.4926 152.398 12.4368C152.331 12.3807 152.22 12.3529 152.062 12.3529H151.918V13.0474Z" fill="#373435"/>
<path d="M152.171 10.8717C150.932 10.8717 149.924 11.8801 149.924 13.1194C149.924 14.3585 150.932 15.3666 152.171 15.3666C153.411 15.3666 154.419 14.3585 154.419 13.1194C154.419 11.8801 153.411 10.8717 152.171 10.8717ZM152.171 15.9376C150.617 15.9376 149.353 14.6733 149.353 13.1194C149.353 11.5653 150.617 10.3008 152.171 10.3008C153.725 10.3008 154.989 11.5653 154.989 13.1194C154.989 14.6733 153.725 15.9376 152.171 15.9376Z" fill="#373435"/>
</svg>
