<svg width="161" height="40" viewBox="0 0 161 40" fill="none" xmlns="http://www.w3.org/2000/svg">
<g clip-path="url(#clip0_2746_29)">
<path d="M44.2597 32.7761C42.9022 33.1204 41.5928 33.3749 40.3231 33.5445C39.0456 33.709 37.7279 33.7938 36.3546 33.7938C34.1588 33.7938 32.2104 33.5895 30.5255 33.1854C28.8327 32.7811 27.4034 32.1825 26.2458 31.3793C25.0799 30.5809 24.2015 29.5884 23.6027 28.4059C23.0038 27.2236 22.7003 25.8465 22.7003 24.2749C22.7003 22.6686 23.0278 21.2367 23.6826 19.9846C24.3373 18.7323 25.2715 17.6747 26.4851 16.8116C27.7068 15.9484 29.184 15.29 30.9169 14.8359C32.6574 14.3821 34.6137 14.1576 36.7779 14.1576C37.4805 14.1576 38.1352 14.1674 38.7501 14.1874C39.3728 14.2073 39.9716 14.2423 40.5626 14.2973C41.1614 14.3522 41.7603 14.422 42.3673 14.5067C42.9742 14.5967 43.6049 14.7112 44.2597 14.846V18.4081C42.934 18.019 41.6726 17.7445 40.4746 17.5799C39.2771 17.4153 38.183 17.3305 37.201 17.3305C35.7557 17.3305 34.518 17.4951 33.4881 17.8194C32.458 18.1486 31.6116 18.6027 30.9487 19.1963C30.2939 19.785 29.807 20.4835 29.4956 21.3016C29.184 22.1149 29.0244 23.0079 29.0244 23.9807C29.0244 25.0134 29.184 25.9364 29.5035 26.7545C29.8231 27.5677 30.318 28.2561 30.9888 28.8199C31.6593 29.3886 32.5138 29.8178 33.5598 30.1172C34.5978 30.4114 35.8436 30.5612 37.2729 30.5612C37.7839 30.5612 38.3427 30.5312 38.9417 30.4664C39.5407 30.4015 40.1474 30.3217 40.7622 30.2169C41.385 30.1172 41.9919 29.9923 42.5909 29.8526C43.1896 29.7131 43.7487 29.5682 44.2597 29.4236V32.7761ZM72.6141 23.8858C72.6141 25.622 72.2868 27.1187 71.64 28.3759C70.9932 29.6281 70.1068 30.6608 68.9731 31.4741C67.8391 32.2824 66.5136 32.8809 64.9964 33.2702C63.4714 33.6593 61.8505 33.8537 60.1176 33.8537C56.0853 33.8537 53.0592 33.0206 51.0309 31.3494C49.0027 29.6781 47.9886 27.2485 47.9886 24.0655C47.9886 22.3293 48.3159 20.8327 48.9628 19.5755C49.6095 18.3183 50.4959 17.2906 51.6296 16.4775C52.7636 15.6692 54.0891 15.0705 55.6061 14.6814C57.1313 14.2921 58.7604 14.0977 60.4849 14.0977C64.5174 14.0977 67.5438 14.9308 69.5718 16.5972C71.6 18.2634 72.6141 20.693 72.6141 23.8858ZM66.5296 24.0655C66.5296 21.8005 66.0426 20.1093 65.0765 18.9967C64.1101 17.8842 62.5213 17.3305 60.3015 17.3305C59.1915 17.3305 58.2492 17.4752 57.4667 17.7644C56.6841 18.049 56.0454 18.4728 55.5342 19.0267C55.0314 19.5854 54.656 20.2689 54.4245 21.0872C54.1929 21.9003 54.0732 22.8333 54.0732 23.8858C54.0732 26.1509 54.5601 27.8421 55.5342 28.9547C56.5085 30.0672 58.0975 30.6209 60.3015 30.6209C61.4112 30.6209 62.3615 30.4762 63.1441 30.1869C63.9346 29.9026 64.5813 29.4785 65.0765 28.9248C65.5795 28.366 65.9467 27.6825 66.1783 26.8644C66.4098 26.051 66.5296 25.1181 66.5296 24.0655ZM90.8036 33.5245L82.5872 22.1248L80.8944 19.6703V27.5928V33.5245H75.6724V14.4269H82.7152L91.1073 25.8965L92.5845 28.1314V19.7002V14.4269H97.8065V33.5245H90.8036ZM125.299 23.8858C125.299 25.622 124.971 27.1187 124.325 28.3759C123.678 29.6281 122.791 30.6608 121.658 31.4741C120.524 32.2824 119.198 32.8809 117.681 33.2702C116.156 33.6593 114.535 33.8537 112.802 33.8537C108.77 33.8537 105.743 33.0206 103.715 31.3494C101.687 29.6781 100.673 27.2485 100.673 24.0655C100.673 22.3293 101 20.8327 101.647 19.5755C102.294 18.3183 103.18 17.2906 104.314 16.4775C105.448 15.6692 106.774 15.0705 108.291 14.6814C109.816 14.2921 111.445 14.0977 113.169 14.0977C117.202 14.0977 120.228 14.9308 122.256 16.5972C124.285 18.2634 125.299 20.693 125.299 23.8858ZM119.214 24.0655C119.214 21.8005 118.727 20.1093 117.761 18.9967C116.795 17.8842 115.206 17.3305 112.986 17.3305C111.876 17.3305 110.934 17.4752 110.151 17.7644C109.369 18.049 108.73 18.4728 108.219 19.0267C107.716 19.5854 107.34 20.2689 107.109 21.0872C106.877 21.9003 106.758 22.8333 106.758 23.8858C106.758 26.1509 107.245 27.8421 108.219 28.9547C109.193 30.0672 110.782 30.6209 112.986 30.6209C114.096 30.6209 115.046 30.4762 115.829 30.1869C116.619 29.9026 117.266 29.4785 117.761 28.9248C118.264 28.366 118.631 27.6825 118.863 26.8644C119.094 26.051 119.214 25.1181 119.214 24.0655ZM150.012 27.7473C150.012 28.79 149.7 29.6929 149.086 30.4614C148.471 31.2346 147.608 31.8681 146.507 32.372C145.397 32.871 144.079 33.245 142.554 33.4895C141.021 33.7341 139.36 33.8537 137.547 33.8537C135.943 33.8537 134.393 33.7938 132.892 33.6792C131.399 33.5644 129.922 33.3749 128.453 33.1054V29.5433C129.171 29.703 129.914 29.8476 130.696 29.9874C131.471 30.1221 132.254 30.2468 133.044 30.3466C133.835 30.4513 134.617 30.5312 135.392 30.591C136.174 30.6509 136.925 30.6809 137.659 30.6809C138.753 30.6809 139.679 30.6209 140.438 30.5063C141.205 30.3865 141.827 30.2269 142.307 30.0174C142.794 29.8129 143.145 29.5682 143.361 29.2839C143.576 28.9995 143.688 28.6853 143.688 28.346C143.688 27.8771 143.472 27.4829 143.041 27.1687C142.618 26.8543 142.051 26.5699 141.348 26.3304C140.646 26.086 139.847 25.8665 138.953 25.6719C138.05 25.4774 137.14 25.2679 136.214 25.0433C135.288 24.8188 134.378 24.5644 133.475 24.2801C132.581 24.0007 131.782 23.6513 131.08 23.2324C130.377 22.8133 129.81 22.3143 129.387 21.7308C128.956 21.152 128.74 20.4535 128.74 19.6354C128.74 18.8871 128.956 18.1737 129.395 17.5001C129.834 16.8316 130.521 16.2429 131.455 15.7439C132.389 15.2402 133.587 14.8411 135.056 14.5417C136.525 14.2472 138.29 14.0977 140.366 14.0977C140.973 14.0977 141.612 14.1127 142.275 14.1475C142.937 14.1825 143.592 14.2273 144.239 14.2822C144.885 14.332 145.508 14.3971 146.107 14.4717C146.714 14.5417 147.265 14.6164 147.76 14.6962V17.9892C147.265 17.8694 146.714 17.7644 146.123 17.6647C145.532 17.57 144.917 17.4801 144.287 17.4103C143.656 17.3354 143.017 17.2805 142.378 17.2406C141.74 17.2007 141.133 17.1807 140.558 17.1807C139.544 17.1807 138.689 17.2307 137.987 17.3354C137.284 17.4352 136.709 17.5799 136.254 17.7595C135.799 17.9392 135.471 18.1587 135.272 18.4231C135.072 18.6875 134.968 18.9767 134.968 19.3012C134.968 19.7002 135.184 20.0444 135.615 20.3287C136.038 20.6183 136.613 20.8775 137.316 21.1022C138.026 21.3316 138.833 21.5463 139.727 21.7456C140.63 21.9452 141.548 22.1598 142.49 22.3892C143.432 22.6188 144.351 22.8781 145.253 23.1725C146.147 23.4618 146.954 23.8211 147.664 24.2402C148.367 24.6591 148.942 25.1531 149.365 25.7219C149.796 26.2905 150.012 26.964 150.012 27.7473Z" fill="#FEFEFE"/>
<path d="M44.2597 32.7761C42.9022 33.1204 41.5928 33.3749 40.3231 33.5445C39.0456 33.709 37.7279 33.7938 36.3546 33.7938C34.1588 33.7938 32.2104 33.5895 30.5255 33.1854C28.8327 32.7811 27.4034 32.1825 26.2458 31.3793C25.0799 30.5809 24.2015 29.5884 23.6027 28.4059C23.0038 27.2236 22.7003 25.8465 22.7003 24.2749C22.7003 22.6686 23.0278 21.2367 23.6826 19.9846C24.3373 18.7323 25.2715 17.6747 26.4851 16.8116C27.7068 15.9484 29.184 15.29 30.9169 14.8359C32.6574 14.3821 34.6137 14.1576 36.7779 14.1576C37.4805 14.1576 38.1352 14.1674 38.7501 14.1874C39.3728 14.2073 39.9716 14.2423 40.5626 14.2973C41.1614 14.3522 41.7603 14.422 42.3673 14.5067C42.9742 14.5967 43.6049 14.7112 44.2597 14.846V18.4081C42.934 18.019 41.6726 17.7445 40.4746 17.5799C39.2771 17.4153 38.183 17.3305 37.201 17.3305C35.7557 17.3305 34.518 17.4951 33.4881 17.8194C32.458 18.1486 31.6116 18.6027 30.9487 19.1963C30.2939 19.785 29.807 20.4835 29.4956 21.3016C29.184 22.1149 29.0244 23.0079 29.0244 23.9807C29.0244 25.0134 29.184 25.9364 29.5035 26.7545C29.8231 27.5677 30.318 28.2561 30.9888 28.8199C31.6593 29.3886 32.5138 29.8178 33.5598 30.1172C34.5978 30.4114 35.8436 30.5612 37.2729 30.5612C37.7839 30.5612 38.3427 30.5312 38.9417 30.4664C39.5407 30.4015 40.1474 30.3217 40.7622 30.2169C41.385 30.1172 41.9919 29.9923 42.5909 29.8526C43.1896 29.7131 43.7487 29.5682 44.2597 29.4236V32.7761ZM72.6141 23.8858C72.6141 25.622 72.2868 27.1187 71.64 28.3759C70.9932 29.6281 70.1068 30.6608 68.9731 31.4741C67.8391 32.2824 66.5136 32.8809 64.9964 33.2702C63.4714 33.6593 61.8505 33.8537 60.1176 33.8537C56.0853 33.8537 53.0592 33.0206 51.0309 31.3494C49.0027 29.6781 47.9886 27.2485 47.9886 24.0655C47.9886 22.3293 48.3159 20.8327 48.9628 19.5755C49.6095 18.3183 50.4959 17.2906 51.6296 16.4775C52.7636 15.6692 54.0891 15.0705 55.6061 14.6814C57.1313 14.2921 58.7604 14.0977 60.4849 14.0977C64.5174 14.0977 67.5438 14.9308 69.5718 16.5972C71.6 18.2634 72.6141 20.693 72.6141 23.8858ZM66.5296 24.0655C66.5296 21.8005 66.0426 20.1093 65.0765 18.9967C64.1101 17.8842 62.5213 17.3305 60.3015 17.3305C59.1915 17.3305 58.2492 17.4752 57.4667 17.7644C56.6841 18.049 56.0454 18.4728 55.5342 19.0267C55.0314 19.5854 54.656 20.2689 54.4245 21.0872C54.1929 21.9003 54.0732 22.8333 54.0732 23.8858C54.0732 26.1509 54.5601 27.8421 55.5342 28.9547C56.5085 30.0672 58.0975 30.6209 60.3015 30.6209C61.4112 30.6209 62.3615 30.4762 63.1441 30.1869C63.9346 29.9026 64.5813 29.4785 65.0765 28.9248C65.5795 28.366 65.9467 27.6825 66.1783 26.8644C66.4098 26.051 66.5296 25.1181 66.5296 24.0655ZM90.8036 33.5245L82.5872 22.1248L80.8944 19.6703V27.5928V33.5245H75.6724V14.4269H82.7152L91.1073 25.8965L92.5845 28.1314V19.7002V14.4269H97.8065V33.5245H90.8036ZM125.299 23.8858C125.299 25.622 124.971 27.1187 124.325 28.3759C123.678 29.6281 122.791 30.6608 121.658 31.4741C120.524 32.2824 119.198 32.8809 117.681 33.2702C116.156 33.6593 114.535 33.8537 112.802 33.8537C108.77 33.8537 105.743 33.0206 103.715 31.3494C101.687 29.6781 100.673 27.2485 100.673 24.0655C100.673 22.3293 101 20.8327 101.647 19.5755C102.294 18.3183 103.18 17.2906 104.314 16.4775C105.448 15.6692 106.774 15.0705 108.291 14.6814C109.816 14.2921 111.445 14.0977 113.169 14.0977C117.202 14.0977 120.228 14.9308 122.256 16.5972C124.285 18.2634 125.299 20.693 125.299 23.8858ZM119.214 24.0655C119.214 21.8005 118.727 20.1093 117.761 18.9967C116.795 17.8842 115.206 17.3305 112.986 17.3305C111.876 17.3305 110.934 17.4752 110.151 17.7644C109.369 18.049 108.73 18.4728 108.219 19.0267C107.716 19.5854 107.34 20.2689 107.109 21.0872C106.877 21.9003 106.758 22.8333 106.758 23.8858C106.758 26.1509 107.245 27.8421 108.219 28.9547C109.193 30.0672 110.782 30.6209 112.986 30.6209C114.096 30.6209 115.046 30.4762 115.829 30.1869C116.619 29.9026 117.266 29.4785 117.761 28.9248C118.264 28.366 118.631 27.6825 118.863 26.8644C119.094 26.051 119.214 25.1181 119.214 24.0655ZM150.012 27.7473C150.012 28.79 149.7 29.6929 149.086 30.4614C148.471 31.2346 147.608 31.8681 146.507 32.372C145.397 32.871 144.079 33.245 142.554 33.4895C141.021 33.7341 139.36 33.8537 137.547 33.8537C135.943 33.8537 134.393 33.7938 132.892 33.6792C131.399 33.5644 129.922 33.3749 128.453 33.1054V29.5433C129.171 29.703 129.914 29.8476 130.696 29.9874C131.471 30.1221 132.254 30.2468 133.044 30.3466C133.835 30.4513 134.617 30.5312 135.392 30.591C136.174 30.6509 136.925 30.6809 137.659 30.6809C138.753 30.6809 139.679 30.6209 140.438 30.5063C141.205 30.3865 141.827 30.2269 142.307 30.0174C142.794 29.8129 143.145 29.5682 143.361 29.2839C143.576 28.9995 143.688 28.6853 143.688 28.346C143.688 27.8771 143.472 27.4829 143.041 27.1687C142.618 26.8543 142.051 26.5699 141.348 26.3304C140.646 26.086 139.847 25.8665 138.953 25.6719C138.05 25.4774 137.14 25.2679 136.214 25.0433C135.288 24.8188 134.378 24.5644 133.475 24.2801C132.581 24.0007 131.782 23.6513 131.08 23.2324C130.377 22.8133 129.81 22.3143 129.387 21.7308C128.956 21.152 128.74 20.4535 128.74 19.6354C128.74 18.8871 128.956 18.1737 129.395 17.5001C129.834 16.8316 130.521 16.2429 131.455 15.7439C132.389 15.2402 133.587 14.8411 135.056 14.5417C136.525 14.2472 138.29 14.0977 140.366 14.0977C140.973 14.0977 141.612 14.1127 142.275 14.1475C142.937 14.1825 143.592 14.2273 144.239 14.2822C144.885 14.332 145.508 14.3971 146.107 14.4717C146.714 14.5417 147.265 14.6164 147.76 14.6962V17.9892C147.265 17.8694 146.714 17.7644 146.123 17.6647C145.532 17.57 144.917 17.4801 144.287 17.4103C143.656 17.3354 143.017 17.2805 142.378 17.2406C141.74 17.2007 141.133 17.1807 140.558 17.1807C139.544 17.1807 138.689 17.2307 137.987 17.3354C137.284 17.4352 136.709 17.5799 136.254 17.7595C135.799 17.9392 135.471 18.1587 135.272 18.4231C135.072 18.6875 134.968 18.9767 134.968 19.3012C134.968 19.7002 135.184 20.0444 135.615 20.3287C136.038 20.6183 136.613 20.8775 137.316 21.1022C138.026 21.3316 138.833 21.5463 139.727 21.7456C140.63 21.9452 141.548 22.1598 142.49 22.3892C143.432 22.6188 144.351 22.8781 145.253 23.1725C146.147 23.4618 146.954 23.8211 147.664 24.2402C148.367 24.6591 148.942 25.1531 149.365 25.7219C149.796 26.2905 150.012 26.964 150.012 27.7473Z" fill="#FEFEFE"/>
<path fill-rule="evenodd" clip-rule="evenodd" d="M6.16467 14.3105H12.3723H17.9669H18.427V33.8535H12.3723V18.0657H6.16467V14.3105Z" fill="#FEFEFE"/>
<path fill-rule="evenodd" clip-rule="evenodd" d="M6.16467 14.3105H12.3723H17.9669H18.427V33.8535H12.3723V18.0657H6.16467V14.3105Z" fill="#FEFEFE"/>
<path fill-rule="evenodd" clip-rule="evenodd" d="M12.3711 7.04688H18.4269V12.1955H12.3711V7.04688Z" fill="#FFCC29"/>
<path d="M151.181 15.0835V12.4258H151.939C152.236 12.4258 152.442 12.4393 152.559 12.4668C152.675 12.494 152.776 12.5397 152.861 12.6035C152.957 12.676 153.03 12.7689 153.082 12.8812C153.133 12.9938 153.159 13.1179 153.159 13.2535C153.159 13.4591 153.108 13.6265 153.007 13.7553C152.905 13.884 152.758 13.9697 152.564 14.0117L153.289 15.0835H152.471L151.861 14.0426V15.0835H151.181ZM151.861 13.6821H151.995C152.151 13.6821 152.265 13.6555 152.337 13.6022C152.409 13.549 152.445 13.4654 152.445 13.352C152.445 13.2187 152.412 13.1239 152.345 13.0677C152.277 13.0112 152.165 12.9833 152.006 12.9833H151.861V13.6821Z" fill="#FEFEFE"/>
<path d="M152.116 11.4924C150.869 11.4924 149.854 12.5071 149.854 13.7542C149.854 15.001 150.869 16.0155 152.116 16.0155C153.363 16.0155 154.377 15.001 154.377 13.7542C154.377 12.5071 153.363 11.4924 152.116 11.4924ZM152.116 16.59C150.552 16.59 149.28 15.3178 149.28 13.7542C149.28 12.1904 150.552 10.918 152.116 10.918C153.679 10.918 154.952 12.1904 154.952 13.7542C154.952 15.3178 153.679 16.59 152.116 16.59Z" fill="#FEFEFE"/>
</g>
<defs>
<clipPath id="clip0_2746_29">
<rect width="161" height="40" fill="white"/>
</clipPath>
</defs>
</svg>
